<?xml version="1.0" encoding="UTF-8" standalone="no"?>
<!-- Created with Inkscape (http://www.inkscape.org/) -->

<svg
   xmlns:dc="http://purl.org/dc/elements/1.1/"
   xmlns:cc="http://creativecommons.org/ns#"
   xmlns:rdf="http://www.w3.org/1999/02/22-rdf-syntax-ns#"
   xmlns:svg="http://www.w3.org/2000/svg"
   xmlns="http://www.w3.org/2000/svg"
   xmlns:sodipodi="http://sodipodi.sourceforge.net/DTD/sodipodi-0.dtd"
   xmlns:inkscape="http://www.inkscape.org/namespaces/inkscape"
   width="210mm"
   height="297mm"
   viewBox="0 0 210 297"
   version="1.1"
   id="svg8"
   inkscape:version="0.92.3 (2405546, 2018-03-11)"
   sodipodi:docname="foobar.svg">
  <defs
     id="defs2" />
  <sodipodi:namedview
     id="base"
     pagecolor="#ffffff"
     bordercolor="#666666"
     borderopacity="1.0"
     inkscape:pageopacity="0.0"
     inkscape:pageshadow="2"
     inkscape:zoom="3.959798"
     inkscape:cx="424.06802"
     inkscape:cy="659.07749"
     inkscape:document-units="mm"
     inkscape:current-layer="layer1"
     showgrid="false"
     inkscape:window-width="1920"
     inkscape:window-height="1031"
     inkscape:window-x="0"
     inkscape:window-y="25"
     inkscape:window-maximized="1" />
  <metadata
     id="metadata5">
    <rdf:RDF>
      <cc:Work
         rdf:about="">
        <dc:format>image/svg+xml</dc:format>
        <dc:type
           rdf:resource="http://purl.org/dc/dcmitype/StillImage" />
        <dc:title></dc:title>
      </cc:Work>
    </rdf:RDF>
  </metadata>
  <g
     inkscape:label="Layer 1"
     inkscape:groupmode="layer"
     id="layer1">
    <path
       sodipodi:type="spiral"
       style="fill:none;fill-rule:evenodd;stroke:#000000;stroke-width:0.26458332"
       id="path3713"
       sodipodi:cx="68.153725"
       sodipodi:cy="111.18085"
       sodipodi:expansion="1"
       sodipodi:revolution="3"
       sodipodi:radius="6.1765432"
       sodipodi:argument="-17.824745"
       sodipodi:t0="0"
       d="m 68.153725,111.18085 c 0.160805,0.26466 -0.27742,0.34733 -0.439881,0.26727 -0.440261,-0.21698 -0.369554,-0.83148 -0.09466,-1.14703 0.491724,-0.56446 1.377627,-0.42841 1.854183,0.078 0.699364,0.74309 0.490962,1.9319 -0.250565,2.56133 -0.988338,0.83894 -2.489149,0.55522 -3.268483,-0.42317 -0.980714,-1.23122 -0.620388,-3.04784 0.595787,-3.97564 1.472951,-1.12368 3.607345,-0.68608 4.682785,0.7684 1.267368,1.71405 0.752104,4.16736 -0.94101,5.38994 -1.954767,1.41151 -4.727717,0.81835 -6.097087,-1.11363 -1.555964,-2.19522 -0.88475,-5.28831 1.286233,-6.80423 2.435515,-1.70064 5.849081,-0.95127 7.511388,1.45884 1.845476,2.67568 1.017858,6.40998 -1.631456,8.21854" />
    <path
       sodipodi:type="spiral"
       style="fill:none;fill-rule:evenodd;stroke:#000000;stroke-width:0.26458332"
       id="path3715"
       sodipodi:cx="88.198944"
       sodipodi:cy="113.38583"
       sodipodi:expansion="1"
       sodipodi:revolution="3"
       sodipodi:radius="5.2992544"
       sodipodi:argument="-18.117678"
       sodipodi:t0="0"
       d="m 88.198944,113.38583 c 0.197657,0.17756 -0.141825,0.35404 -0.29511,0.32852 -0.415392,-0.0691 -0.509553,-0.59143 -0.361927,-0.91874 0.264067,-0.58547 1.02547,-0.6932 1.542368,-0.39533 0.758568,0.43712 0.881906,1.46526 0.428744,2.16599 -0.603994,0.93398 -1.907073,1.07275 -2.789626,0.46216 -1.110603,-0.76837 -1.264689,-2.34985 -0.495561,-3.41326 0.931517,-1.28793 2.793158,-1.45726 4.036884,-0.52897 1.465688,1.09397 1.65024,3.23681 0.562378,4.66052 -1.255981,1.64372 -3.68068,1.84348 -5.284142,0.59578 -1.821955,-1.41771 -2.03691,-4.12471 -0.629195,-5.90777 1.579244,-2.00032 4.568858,-2.23047 6.531399,-0.6626 2.178794,1.74063 2.424137,5.01309 0.696012,7.15503" />
    <path
       sodipodi:type="spiral"
       style="fill:#ff0000;fill-rule:evenodd;stroke:#000000;stroke-width:0.26458332"
       id="path3717"
       sodipodi:cx="93.143433"
       sodipodi:cy="123.00753"
       sodipodi:expansion="1"
       sodipodi:revolution="3"
       sodipodi:radius="3.7631891"
       sodipodi:argument="-17.172024"
       sodipodi:t0="0"
       d="m 93.143433,123.00753 c -0.0201,0.18761 -0.262807,0.0655 -0.311815,-0.0334 -0.132807,-0.26794 0.128806,-0.5392 0.378632,-0.59022 0.44688,-0.0913 0.825333,0.30242 0.868626,0.72386 0.06353,0.61847 -0.477244,1.11676 -1.069078,1.14703 -0.788822,0.0403 -1.410268,-0.65235 -1.425438,-1.4143 -0.01909,-0.95885 0.827543,-1.7048 1.759525,-1.70385 1.128756,0.001 1.999925,1.00279 1.982249,2.10475 -0.02083,1.29863 -1.178058,2.29542 -2.449971,2.26066 -1.468475,-0.0401 -2.591159,-1.35335 -2.53906,-2.7952 0.0592,-1.63832 1.528651,-2.88707 3.140417,-2.81746 1.808158,0.0781 3.183111,1.70396 3.095871,3.48564 -0.09685,1.97799 -1.879286,3.47924 -3.830863,3.37427" />
    <path
       sodipodi:type="spiral"
       style="fill:none;fill-rule:evenodd;stroke:#000000;stroke-width:0.26458332"
       id="path3719"
       sodipodi:cx="65.748306"
       sodipodi:cy="110.24541"
       sodipodi:expansion="1"
       sodipodi:revolution="3"
       sodipodi:radius="5.6558456"
       sodipodi:argument="-18.598846"
       sodipodi:t0="0"
       d="m 65.748306,110.24541 c 0.27471,0.0703 0.0407,0.40501 -0.11693,0.45658 -0.427164,0.13976 -0.774233,-0.30785 -0.796241,-0.69044 -0.03937,-0.68437 0.627791,-1.16238 1.263963,-1.1359 0.933607,0.0389 1.558153,0.95066 1.47555,1.83748 -0.110098,1.18198 -1.274397,1.95695 -2.410994,1.8152 -1.430292,-0.17836 -2.357255,-1.59849 -2.15486,-2.98451 0.245127,-1.67865 1.922791,-2.75843 3.558026,-2.49451 1.927068,0.31101 3.16015,2.24721 2.83417,4.13154 -0.376357,2.17554 -2.571706,3.56223 -4.705058,3.17383 -2.424052,-0.44134 -3.964568,-2.89626 -3.51348,-5.27858 0.506053,-2.67259 3.220857,-4.36709 5.85209,-3.85313 2.921168,0.57058 4.769748,3.54548 4.192789,6.4256" />
    <path
       sodipodi:type="spiral"
       style="fill:none;fill-rule:evenodd;stroke:#000000;stroke-width:0.26458332"
       id="path3721"
       sodipodi:cx="79.913589"
       sodipodi:cy="111.38132"
       sodipodi:expansion="1"
       sodipodi:revolution="3"
       sodipodi:radius="8.5243893"
       sodipodi:argument="-18.612183"
       sodipodi:t0="0"
       d="m 79.913589,111.38132 c 0.415415,0.1005 0.06947,0.60955 -0.167042,0.69044 -0.640948,0.21921 -1.172994,-0.44839 -1.21385,-1.02453 -0.07308,-1.03057 0.922747,-1.76438 1.882021,-1.73725 1.407773,0.0398 2.36732,1.40138 2.260657,2.73951 -0.142165,1.78352 -1.881244,2.97483 -3.597,2.78406 -2.159102,-0.24006 -3.584625,-2.36163 -3.307464,-4.45449 0.335679,-2.53473 2.842296,-4.19573 5.311978,-3.83087 2.910435,0.42998 4.807665,3.32314 4.354272,6.16947 -0.523461,3.28621 -3.804085,5.42014 -7.026957,4.87767 -3.662032,-0.61638 -6.033007,-4.28511 -5.401079,-7.88444 0.708929,-4.0379 4.76621,-6.64615 8.741935,-5.92448 4.413809,0.80118 7.259502,5.24734 6.447886,9.59942" />
    <path
       sodipodi:type="spiral"
       style="fill:none;fill-rule:evenodd;stroke:#000000;stroke-width:0.26458332"
       id="path3723"
       sodipodi:cx="90.069832"
       sodipodi:cy="114.05401"
       sodipodi:expansion="1"
       sodipodi:revolution="3"
       sodipodi:radius="0.98654681"
       sodipodi:argument="-17.772701"
       sodipodi:t0="0"
       d="m 90.069832,114.05401 c 0.02345,0.0435 -0.04714,0.0531 -0.07239,0.039 -0.06842,-0.0383 -0.05204,-0.1357 -0.0056,-0.18375 0.08312,-0.0859 0.223303,-0.0569 0.29511,0.0278 0.105381,0.12434 0.06226,0.31223 -0.06125,0.40647 -0.164619,0.12561 -0.401654,0.0679 -0.517835,-0.0947 -0.146202,-0.20454 -0.07363,-0.49131 0.128067,-0.62919 0.244285,-0.167 0.581103,-0.0795 0.740559,0.16147 0.187914,0.28394 0.08534,0.67098 -0.194884,0.85192 -0.32353,0.20891 -0.76091,0.0913 -0.963284,-0.22829 -0.229949,-0.36309 -0.09718,-0.85088 0.261702,-1.07465 0.402615,-0.25103 0.940882,-0.10313 1.186008,0.29511 0.272137,0.44213 0.109097,1.03091 -0.328518,1.29737" />
    <text
       xml:space="preserve"
       style="font-style:normal;font-weight:normal;font-size:10.58333302px;line-height:1.25;font-family:sans-serif;letter-spacing:0px;word-spacing:0px;fill:#000000;fill-opacity:1;stroke:none;stroke-width:0.26458332"
       x="67.151466"
       y="118.79803"
       id="text3727"><tspan
         sodipodi:role="line"
         id="tspan3725"
         x="67.151466"
         y="118.79803"
         style="stroke-width:0.26458332;fill:#800080">FOOO</tspan></text>
  </g>
</svg>
